<svg xmlns="http://www.w3.org/2000/svg" viewBox="0 0 100 100" width="100" height="100">
  <defs>
    <linearGradient id="mc" x1="12%" y1="92%" x2="90%" y2="8%">
      <stop offset="0" stop-color="#4C1D95"/>
      <stop offset="0.45" stop-color="#6D28D9"/>
      <stop offset="0.72" stop-color="#4F7BE0"/>
      <stop offset="1" stop-color="#22D3EE"/>
    </linearGradient>
  </defs>
  <g fill="none" stroke="url(#mc)" stroke-width="2.3" stroke-linecap="round" stroke-linejoin="round">
    <path d="M40 27 L57 24 L73 33"/>
    <path d="M40 27 L27 44 L33 57 L41 70 L49 82 L48 93"/>
    <path d="M73 33 L78 53 L68 60"/>
    <path d="M57 24 L49 40 L52 55 L59 67 L49 82"/>
    <path d="M49 40 L64 44 L78 53"/>
    <path d="M64 44 L68 60 L59 67"/>
    <path d="M27 44 L52 55"/>
    <path d="M33 57 L41 70"/>
    <path d="M57 24 L64 44"/>
  </g>
  <g fill="url(#mc)">
    <circle cx="40" cy="27" r="4"/>
    <circle cx="57" cy="24" r="4.4"/>
    <circle cx="73" cy="33" r="4.2"/>
    <circle cx="27" cy="44" r="4"/>
    <circle cx="49" cy="40" r="3.9"/>
    <circle cx="64" cy="44" r="3.9"/>
    <circle cx="78" cy="53" r="4"/>
    <circle cx="33" cy="57" r="3.8"/>
    <circle cx="52" cy="55" r="3.9"/>
    <circle cx="68" cy="60" r="4"/>
    <circle cx="41" cy="70" r="3.9"/>
    <circle cx="59" cy="67" r="3.9"/>
    <circle cx="49" cy="82" r="4"/>
    <circle cx="48" cy="93" r="4"/>
  </g>
</svg>
